<mxfile host="app.diagrams.net" agent="Mozilla/5.0 (X11; Linux x86_64) AppleWebKit/537.36 (KHTML, like Gecko) Chrome/134.0.0.0 Safari/537.36" version="26.1.1">
  <diagram name="Page-1" id="ElYW1aIYZWyAJcGWgqj5">
    <mxGraphModel dx="1364" dy="879" grid="1" gridSize="10" guides="1" tooltips="1" connect="1" arrows="1" fold="1" page="1" pageScale="1" pageWidth="850" pageHeight="1100" math="0" shadow="0">
      <root>
        <mxCell id="0" />
        <mxCell id="1" parent="0" />
        <mxCell id="vEZEDoVwLtAL0LmJnPWp-1" value="frame" style="shape=umlFrame;whiteSpace=wrap;html=1;pointerEvents=0;" vertex="1" parent="1">
          <mxGeometry x="40" y="30" width="1250" height="800" as="geometry" />
        </mxCell>
        <mxCell id="vEZEDoVwLtAL0LmJnPWp-2" value="«Data Ingestion»&lt;br&gt;&lt;b&gt;Pyshark&lt;/b&gt;" style="html=1;dropTarget=0;whiteSpace=wrap;" vertex="1" parent="1">
          <mxGeometry x="480" y="360" width="180" height="90" as="geometry" />
        </mxCell>
        <mxCell id="vEZEDoVwLtAL0LmJnPWp-3" value="" style="shape=module;jettyWidth=8;jettyHeight=4;" vertex="1" parent="vEZEDoVwLtAL0LmJnPWp-2">
          <mxGeometry x="1" width="20" height="20" relative="1" as="geometry">
            <mxPoint x="-27" y="7" as="offset" />
          </mxGeometry>
        </mxCell>
        <mxCell id="vEZEDoVwLtAL0LmJnPWp-4" value="&lt;p style=&quot;margin:0px;margin-top:6px;text-align:center;&quot;&gt;&lt;b&gt;Http Packet&lt;/b&gt;&lt;/p&gt;&lt;hr size=&quot;1&quot; style=&quot;border-style:solid;&quot;&gt;&lt;p style=&quot;margin:0px;margin-left:8px;&quot;&gt;+ time_stamp: DateTime&lt;/p&gt;&lt;p style=&quot;margin:0px;margin-left:8px;&quot;&gt;+ source_ip: String&lt;/p&gt;&lt;p style=&quot;margin:0px;margin-left:8px;&quot;&gt;+ dest_ip: String&lt;/p&gt;&lt;p style=&quot;margin:0px;margin-left:8px;&quot;&gt;+ method: String&lt;/p&gt;&lt;p style=&quot;margin:0px;margin-left:8px;&quot;&gt;+ uri: String&lt;/p&gt;&lt;p style=&quot;margin:0px;margin-left:8px;&quot;&gt;+ status_code: String&lt;/p&gt;&lt;p style=&quot;margin:0px;margin-left:8px;&quot;&gt;+ headers: String&lt;/p&gt;&lt;p style=&quot;margin:0px;margin-left:8px;&quot;&gt;+ payload: Bytes&lt;/p&gt;&lt;p style=&quot;margin:0px;margin-left:8px;&quot;&gt;&lt;br&gt;&lt;/p&gt;" style="align=left;overflow=fill;html=1;dropTarget=0;whiteSpace=wrap;" vertex="1" parent="1">
          <mxGeometry x="80" y="120" width="180" height="160" as="geometry" />
        </mxCell>
        <mxCell id="vEZEDoVwLtAL0LmJnPWp-5" value="" style="shape=component;jettyWidth=8;jettyHeight=4;" vertex="1" parent="vEZEDoVwLtAL0LmJnPWp-4">
          <mxGeometry x="1" width="20" height="20" relative="1" as="geometry">
            <mxPoint x="-24" y="4" as="offset" />
          </mxGeometry>
        </mxCell>
        <mxCell id="vEZEDoVwLtAL0LmJnPWp-8" value="&lt;p style=&quot;margin:0px;margin-top:6px;text-align:center;&quot;&gt;&lt;b&gt;TCP Packet&lt;/b&gt;&lt;/p&gt;&lt;hr size=&quot;1&quot; style=&quot;border-style:solid;&quot;&gt;&lt;p style=&quot;margin:0px;margin-left:8px;&quot;&gt;+ time_stamp: DateTime&lt;/p&gt;&lt;p style=&quot;margin:0px;margin-left:8px;&quot;&gt;+ source_ip: String&lt;/p&gt;&lt;p style=&quot;margin:0px;margin-left:8px;&quot;&gt;+ dest_ip: String&lt;/p&gt;&lt;p style=&quot;margin:0px;margin-left:8px;&quot;&gt;+ method: String&lt;/p&gt;&lt;p style=&quot;margin:0px;margin-left:8px;&quot;&gt;+ uri: String&lt;/p&gt;&lt;p style=&quot;margin:0px;margin-left:8px;&quot;&gt;+ status_code: String&lt;/p&gt;&lt;p style=&quot;margin:0px;margin-left:8px;&quot;&gt;+ headers: String&lt;/p&gt;&lt;p style=&quot;margin:0px;margin-left:8px;&quot;&gt;+ payload: Bytes&lt;/p&gt;&lt;p style=&quot;margin:0px;margin-left:8px;&quot;&gt;&lt;br&gt;&lt;/p&gt;" style="align=left;overflow=fill;html=1;dropTarget=0;whiteSpace=wrap;" vertex="1" parent="1">
          <mxGeometry x="80" y="320" width="180" height="160" as="geometry" />
        </mxCell>
        <mxCell id="vEZEDoVwLtAL0LmJnPWp-9" value="" style="shape=component;jettyWidth=8;jettyHeight=4;" vertex="1" parent="vEZEDoVwLtAL0LmJnPWp-8">
          <mxGeometry x="1" width="20" height="20" relative="1" as="geometry">
            <mxPoint x="-24" y="4" as="offset" />
          </mxGeometry>
        </mxCell>
        <mxCell id="vEZEDoVwLtAL0LmJnPWp-10" value="&lt;p style=&quot;margin:0px;margin-top:6px;text-align:center;&quot;&gt;&lt;b&gt;UDP Packet&lt;/b&gt;&lt;/p&gt;&lt;hr size=&quot;1&quot; style=&quot;border-style:solid;&quot;&gt;&lt;p style=&quot;margin:0px;margin-left:8px;&quot;&gt;+ time_stamp: DateTime&lt;/p&gt;&lt;p style=&quot;margin:0px;margin-left:8px;&quot;&gt;+ source_ip: String&lt;/p&gt;&lt;p style=&quot;margin:0px;margin-left:8px;&quot;&gt;+ dest_ip: String&lt;/p&gt;&lt;p style=&quot;margin:0px;margin-left:8px;&quot;&gt;+ method: String&lt;/p&gt;&lt;p style=&quot;margin:0px;margin-left:8px;&quot;&gt;+ uri: String&lt;/p&gt;&lt;p style=&quot;margin:0px;margin-left:8px;&quot;&gt;+ status_code: String&lt;/p&gt;&lt;p style=&quot;margin:0px;margin-left:8px;&quot;&gt;+ headers: String&lt;/p&gt;&lt;p style=&quot;margin:0px;margin-left:8px;&quot;&gt;+ payload: Bytes&lt;/p&gt;&lt;p style=&quot;margin:0px;margin-left:8px;&quot;&gt;&lt;br&gt;&lt;/p&gt;" style="align=left;overflow=fill;html=1;dropTarget=0;whiteSpace=wrap;" vertex="1" parent="1">
          <mxGeometry x="80" y="520" width="180" height="160" as="geometry" />
        </mxCell>
        <mxCell id="vEZEDoVwLtAL0LmJnPWp-11" value="" style="shape=component;jettyWidth=8;jettyHeight=4;" vertex="1" parent="vEZEDoVwLtAL0LmJnPWp-10">
          <mxGeometry x="1" width="20" height="20" relative="1" as="geometry">
            <mxPoint x="-24" y="4" as="offset" />
          </mxGeometry>
        </mxCell>
        <mxCell id="vEZEDoVwLtAL0LmJnPWp-20" style="edgeStyle=orthogonalEdgeStyle;rounded=0;orthogonalLoop=1;jettySize=auto;html=1;entryX=0;entryY=0.5;entryDx=0;entryDy=0;" edge="1" parent="1" source="vEZEDoVwLtAL0LmJnPWp-19" target="vEZEDoVwLtAL0LmJnPWp-2">
          <mxGeometry relative="1" as="geometry" />
        </mxCell>
        <mxCell id="vEZEDoVwLtAL0LmJnPWp-19" value="" style="shape=providedRequiredInterface;html=1;verticalLabelPosition=bottom;sketch=0;" vertex="1" parent="1">
          <mxGeometry x="260" y="190" width="20" height="20" as="geometry" />
        </mxCell>
        <mxCell id="vEZEDoVwLtAL0LmJnPWp-22" style="edgeStyle=orthogonalEdgeStyle;rounded=0;orthogonalLoop=1;jettySize=auto;html=1;" edge="1" parent="1" source="vEZEDoVwLtAL0LmJnPWp-21" target="vEZEDoVwLtAL0LmJnPWp-2">
          <mxGeometry relative="1" as="geometry" />
        </mxCell>
        <mxCell id="vEZEDoVwLtAL0LmJnPWp-21" value="" style="shape=providedRequiredInterface;html=1;verticalLabelPosition=bottom;sketch=0;" vertex="1" parent="1">
          <mxGeometry x="260" y="395" width="20" height="20" as="geometry" />
        </mxCell>
        <mxCell id="vEZEDoVwLtAL0LmJnPWp-24" style="edgeStyle=orthogonalEdgeStyle;rounded=0;orthogonalLoop=1;jettySize=auto;html=1;entryX=0;entryY=0.5;entryDx=0;entryDy=0;" edge="1" parent="1" source="vEZEDoVwLtAL0LmJnPWp-23" target="vEZEDoVwLtAL0LmJnPWp-2">
          <mxGeometry relative="1" as="geometry" />
        </mxCell>
        <mxCell id="vEZEDoVwLtAL0LmJnPWp-29" value="&lt;b&gt;Packet Capture&lt;/b&gt;" style="edgeLabel;html=1;align=center;verticalAlign=middle;resizable=0;points=[];" vertex="1" connectable="0" parent="vEZEDoVwLtAL0LmJnPWp-24">
          <mxGeometry x="0.6354" y="-1" relative="1" as="geometry">
            <mxPoint as="offset" />
          </mxGeometry>
        </mxCell>
        <mxCell id="vEZEDoVwLtAL0LmJnPWp-23" value="" style="shape=providedRequiredInterface;html=1;verticalLabelPosition=bottom;sketch=0;" vertex="1" parent="1">
          <mxGeometry x="260" y="590" width="20" height="20" as="geometry" />
        </mxCell>
        <mxCell id="vEZEDoVwLtAL0LmJnPWp-25" value="«Data Analytics»&lt;br&gt;&lt;b&gt;Numpy &amp;amp; Pandas&lt;/b&gt;" style="html=1;dropTarget=0;whiteSpace=wrap;" vertex="1" parent="1">
          <mxGeometry x="1090" y="360" width="180" height="90" as="geometry" />
        </mxCell>
        <mxCell id="vEZEDoVwLtAL0LmJnPWp-26" value="" style="shape=module;jettyWidth=8;jettyHeight=4;" vertex="1" parent="vEZEDoVwLtAL0LmJnPWp-25">
          <mxGeometry x="1" width="20" height="20" relative="1" as="geometry">
            <mxPoint x="-27" y="7" as="offset" />
          </mxGeometry>
        </mxCell>
        <mxCell id="vEZEDoVwLtAL0LmJnPWp-27" value="«Data Processing»&lt;br&gt;&lt;b&gt;Scikit-learn &amp;amp; Pytorch&lt;/b&gt;" style="html=1;dropTarget=0;whiteSpace=wrap;" vertex="1" parent="1">
          <mxGeometry x="1095" y="555" width="180" height="90" as="geometry" />
        </mxCell>
        <mxCell id="vEZEDoVwLtAL0LmJnPWp-28" value="" style="shape=module;jettyWidth=8;jettyHeight=4;" vertex="1" parent="vEZEDoVwLtAL0LmJnPWp-27">
          <mxGeometry x="1" width="20" height="20" relative="1" as="geometry">
            <mxPoint x="-27" y="7" as="offset" />
          </mxGeometry>
        </mxCell>
        <mxCell id="vEZEDoVwLtAL0LmJnPWp-43" style="edgeStyle=orthogonalEdgeStyle;rounded=0;orthogonalLoop=1;jettySize=auto;html=1;" edge="1" parent="1" source="vEZEDoVwLtAL0LmJnPWp-30" target="vEZEDoVwLtAL0LmJnPWp-39">
          <mxGeometry relative="1" as="geometry" />
        </mxCell>
        <mxCell id="vEZEDoVwLtAL0LmJnPWp-30" value="" style="shape=requiredInterface;html=1;verticalLabelPosition=bottom;sketch=0;" vertex="1" parent="1">
          <mxGeometry x="660" y="395" width="10" height="20" as="geometry" />
        </mxCell>
        <mxCell id="vEZEDoVwLtAL0LmJnPWp-38" style="edgeStyle=orthogonalEdgeStyle;rounded=0;orthogonalLoop=1;jettySize=auto;html=1;" edge="1" parent="1" source="vEZEDoVwLtAL0LmJnPWp-37" target="vEZEDoVwLtAL0LmJnPWp-27">
          <mxGeometry relative="1" as="geometry" />
        </mxCell>
        <mxCell id="vEZEDoVwLtAL0LmJnPWp-37" value="" style="shape=requiredInterface;html=1;verticalLabelPosition=bottom;sketch=0;direction=south;" vertex="1" parent="1">
          <mxGeometry x="1175" y="450" width="20" height="10" as="geometry" />
        </mxCell>
        <mxCell id="vEZEDoVwLtAL0LmJnPWp-39" value="«Data Ingestion»&lt;br&gt;&lt;b&gt;Apache Kafka&lt;/b&gt;" style="html=1;dropTarget=0;whiteSpace=wrap;" vertex="1" parent="1">
          <mxGeometry x="790" y="360" width="180" height="90" as="geometry" />
        </mxCell>
        <mxCell id="vEZEDoVwLtAL0LmJnPWp-40" value="" style="shape=module;jettyWidth=8;jettyHeight=4;" vertex="1" parent="vEZEDoVwLtAL0LmJnPWp-39">
          <mxGeometry x="1" width="20" height="20" relative="1" as="geometry">
            <mxPoint x="-27" y="7" as="offset" />
          </mxGeometry>
        </mxCell>
        <mxCell id="vEZEDoVwLtAL0LmJnPWp-41" value="«Storage»&lt;br&gt;&lt;b&gt;MySql&lt;/b&gt;" style="html=1;dropTarget=0;whiteSpace=wrap;" vertex="1" parent="1">
          <mxGeometry x="790" y="555" width="180" height="90" as="geometry" />
        </mxCell>
        <mxCell id="vEZEDoVwLtAL0LmJnPWp-42" value="" style="shape=module;jettyWidth=8;jettyHeight=4;" vertex="1" parent="vEZEDoVwLtAL0LmJnPWp-41">
          <mxGeometry x="1" width="20" height="20" relative="1" as="geometry">
            <mxPoint x="-27" y="7" as="offset" />
          </mxGeometry>
        </mxCell>
        <mxCell id="vEZEDoVwLtAL0LmJnPWp-45" style="edgeStyle=orthogonalEdgeStyle;rounded=0;orthogonalLoop=1;jettySize=auto;html=1;entryX=0;entryY=0.5;entryDx=0;entryDy=0;" edge="1" parent="1" source="vEZEDoVwLtAL0LmJnPWp-44" target="vEZEDoVwLtAL0LmJnPWp-25">
          <mxGeometry relative="1" as="geometry" />
        </mxCell>
        <mxCell id="vEZEDoVwLtAL0LmJnPWp-44" value="" style="shape=requiredInterface;html=1;verticalLabelPosition=bottom;sketch=0;" vertex="1" parent="1">
          <mxGeometry x="970" y="395" width="10" height="20" as="geometry" />
        </mxCell>
        <mxCell id="vEZEDoVwLtAL0LmJnPWp-46" value="«Visualization»&lt;div&gt;&lt;br/&gt;&lt;/div&gt;" style="html=1;dropTarget=0;whiteSpace=wrap;" vertex="1" parent="1">
          <mxGeometry x="790" y="710" width="180" height="90" as="geometry" />
        </mxCell>
        <mxCell id="vEZEDoVwLtAL0LmJnPWp-47" value="" style="shape=module;jettyWidth=8;jettyHeight=4;" vertex="1" parent="vEZEDoVwLtAL0LmJnPWp-46">
          <mxGeometry x="1" width="20" height="20" relative="1" as="geometry">
            <mxPoint x="-27" y="7" as="offset" />
          </mxGeometry>
        </mxCell>
        <mxCell id="vEZEDoVwLtAL0LmJnPWp-48" value="«Workflow Management»&lt;br&gt;&lt;b&gt;Apache Airflow&lt;/b&gt;" style="html=1;dropTarget=0;whiteSpace=wrap;" vertex="1" parent="1">
          <mxGeometry x="480" y="555" width="180" height="90" as="geometry" />
        </mxCell>
        <mxCell id="vEZEDoVwLtAL0LmJnPWp-49" value="" style="shape=module;jettyWidth=8;jettyHeight=4;" vertex="1" parent="vEZEDoVwLtAL0LmJnPWp-48">
          <mxGeometry x="1" width="20" height="20" relative="1" as="geometry">
            <mxPoint x="-27" y="7" as="offset" />
          </mxGeometry>
        </mxCell>
        <mxCell id="vEZEDoVwLtAL0LmJnPWp-52" style="edgeStyle=orthogonalEdgeStyle;rounded=0;orthogonalLoop=1;jettySize=auto;html=1;entryX=0.5;entryY=1;entryDx=0;entryDy=0;" edge="1" parent="1" source="vEZEDoVwLtAL0LmJnPWp-51" target="vEZEDoVwLtAL0LmJnPWp-2">
          <mxGeometry relative="1" as="geometry" />
        </mxCell>
        <mxCell id="vEZEDoVwLtAL0LmJnPWp-51" value="" style="shape=requiredInterface;html=1;verticalLabelPosition=bottom;sketch=0;direction=north;" vertex="1" parent="1">
          <mxGeometry x="560" y="545" width="20" height="10" as="geometry" />
        </mxCell>
        <mxCell id="vEZEDoVwLtAL0LmJnPWp-54" style="edgeStyle=orthogonalEdgeStyle;rounded=0;orthogonalLoop=1;jettySize=auto;html=1;entryX=1;entryY=0.5;entryDx=0;entryDy=0;" edge="1" parent="1" source="vEZEDoVwLtAL0LmJnPWp-53" target="vEZEDoVwLtAL0LmJnPWp-41">
          <mxGeometry relative="1" as="geometry" />
        </mxCell>
        <mxCell id="vEZEDoVwLtAL0LmJnPWp-53" value="" style="shape=requiredInterface;html=1;verticalLabelPosition=bottom;sketch=0;direction=west;" vertex="1" parent="1">
          <mxGeometry x="1085" y="590" width="10" height="20" as="geometry" />
        </mxCell>
        <mxCell id="vEZEDoVwLtAL0LmJnPWp-56" style="edgeStyle=orthogonalEdgeStyle;rounded=0;orthogonalLoop=1;jettySize=auto;html=1;entryX=0.5;entryY=0;entryDx=0;entryDy=0;" edge="1" parent="1" source="vEZEDoVwLtAL0LmJnPWp-55" target="vEZEDoVwLtAL0LmJnPWp-41">
          <mxGeometry relative="1" as="geometry">
            <Array as="points">
              <mxPoint x="1135" y="500" />
              <mxPoint x="880" y="500" />
            </Array>
          </mxGeometry>
        </mxCell>
        <mxCell id="vEZEDoVwLtAL0LmJnPWp-55" value="" style="shape=requiredInterface;html=1;verticalLabelPosition=bottom;sketch=0;direction=south;" vertex="1" parent="1">
          <mxGeometry x="1125" y="450" width="20" height="10" as="geometry" />
        </mxCell>
      </root>
    </mxGraphModel>
  </diagram>
</mxfile>
